<svg xmlns="http://www.w3.org/2000/svg" viewBox="0 0 800 600" fill="none">
  <rect width="800" height="600" fill="#EEF2FF"/>
  <rect x="60" y="80" width="220" height="140" rx="12" fill="#6366F1" opacity="0.15"/>
  <rect x="60" y="80" width="220" height="140" rx="12" stroke="#6366F1" stroke-width="2" opacity="0.4"/>
  <rect x="320" y="120" width="180" height="100" rx="12" fill="#8B5CF6" opacity="0.15"/>
  <rect x="320" y="120" width="180" height="100" rx="12" stroke="#8B5CF6" stroke-width="2" opacity="0.4"/>
  <rect x="540" y="60" width="200" height="160" rx="12" fill="#EC4899" opacity="0.12"/>
  <rect x="540" y="60" width="200" height="160" rx="12" stroke="#EC4899" stroke-width="2" opacity="0.4"/>
  <line x1="280" y1="150" x2="320" y2="170" stroke="#6366F1" stroke-width="2" stroke-dasharray="6 4" opacity="0.6"/>
  <line x1="500" y1="170" x2="540" y2="140" stroke="#8B5CF6" stroke-width="2" stroke-dasharray="6 4" opacity="0.6"/>
  <rect x="100" y="310" width="160" height="100" rx="12" fill="#F59E0B" opacity="0.15"/>
  <rect x="100" y="310" width="160" height="100" rx="12" stroke="#F59E0B" stroke-width="2" opacity="0.4"/>
  <rect x="320" y="290" width="200" height="120" rx="12" fill="#10B981" opacity="0.12"/>
  <rect x="320" y="290" width="200" height="120" rx="12" stroke="#10B981" stroke-width="2" opacity="0.4"/>
  <rect x="560" y="280" width="180" height="140" rx="12" fill="#3B82F6" opacity="0.12"/>
  <rect x="560" y="280" width="180" height="140" rx="12" stroke="#3B82F6" stroke-width="2" opacity="0.4"/>
  <line x1="260" y1="360" x2="320" y2="350" stroke="#F59E0B" stroke-width="2" stroke-dasharray="6 4" opacity="0.6"/>
  <line x1="520" y1="350" x2="560" y2="355" stroke="#10B981" stroke-width="2" stroke-dasharray="6 4" opacity="0.6"/>
  <circle cx="170" cy="490" r="30" fill="#6366F1" opacity="0.2"/>
  <circle cx="400" cy="480" r="25" fill="#EC4899" opacity="0.2"/>
  <circle cx="620" cy="490" r="35" fill="#F59E0B" opacity="0.2"/>
</svg>
