<svg xmlns="http://www.w3.org/2000/svg" viewBox="0 0 800 600" fill="none">
  <rect width="800" height="600" fill="#F8FAFF"/>
  <rect x="40" y="40" width="340" height="520" rx="14" fill="#DBEAFE" opacity="0.4"/>
  <rect x="40" y="40" width="340" height="520" rx="14" stroke="#3B82F6" stroke-width="1.5" opacity="0.3"/>
  <rect x="420" y="40" width="340" height="520" rx="14" fill="#E0E7FF" opacity="0.35"/>
  <rect x="420" y="40" width="340" height="520" rx="14" stroke="#6366F1" stroke-width="1.5" opacity="0.3"/>
  <text x="210" y="80" font-family="sans-serif" font-size="14" fill="#2563EB" opacity="0.7" text-anchor="middle" font-weight="bold">In Progress</text>
  <text x="590" y="80" font-family="sans-serif" font-size="14" fill="#4F46E5" opacity="0.7" text-anchor="middle" font-weight="bold">Done</text>
  <rect x="65" y="100" width="290" height="80" rx="8" fill="white" opacity="0.85"/>
  <rect x="65" y="100" width="290" height="80" rx="8" stroke="#93C5FD" stroke-width="1.5"/>
  <rect x="65" y="210" width="290" height="80" rx="8" fill="white" opacity="0.8"/>
  <rect x="65" y="210" width="290" height="80" rx="8" stroke="#93C5FD" stroke-width="1.5"/>
  <rect x="65" y="320" width="290" height="80" rx="8" fill="white" opacity="0.75"/>
  <rect x="65" y="320" width="290" height="80" rx="8" stroke="#93C5FD" stroke-width="1.5"/>
  <rect x="445" y="100" width="290" height="80" rx="8" fill="white" opacity="0.85"/>
  <rect x="445" y="100" width="290" height="80" rx="8" stroke="#A5B4FC" stroke-width="1.5"/>
  <rect x="445" y="210" width="290" height="80" rx="8" fill="white" opacity="0.8"/>
  <rect x="445" y="210" width="290" height="80" rx="8" stroke="#A5B4FC" stroke-width="1.5"/>
</svg>
